<svg width="96" height="34" viewBox="0 0 96 34" fill="none" xmlns="http://www.w3.org/2000/svg">
<rect width="96" height="34" fill="black"/>
<path d="M19.344 15.688C19.6213 15.688 19.9093 15.7467 20.208 15.864C20.5067 15.9813 20.7947 16.136 21.072 16.328H21.056C21.3333 16.52 21.5467 16.7813 21.696 17.112C21.8453 17.4427 21.92 17.8213 21.92 18.248V20.44C21.92 21.304 21.632 21.9493 21.056 22.376C20.7787 22.5787 20.4907 22.7387 20.192 22.856C19.904 22.9627 19.6213 23.016 19.344 23.016H15.856C15.5787 23.016 15.2907 22.9627 14.992 22.856C14.704 22.7387 14.4213 22.5787 14.144 22.376C13.568 21.9493 13.28 21.304 13.28 20.44V19.384C13.28 18.8827 13.5947 18.632 14.224 18.632C14.864 18.632 15.184 18.8827 15.184 19.384V20.312C15.184 20.5893 15.264 20.84 15.424 21.064C15.584 21.288 15.8613 21.4 16.256 21.4H18.944C19.3387 21.4 19.616 21.288 19.776 21.064C19.936 20.84 20.016 20.5893 20.016 20.312V18.376C20.016 18.1093 19.936 17.864 19.776 17.64C19.616 17.4053 19.3387 17.288 18.944 17.288H15.856C15.3013 17.288 14.7307 17.0853 14.144 16.68C13.568 16.232 13.28 15.5867 13.28 14.744V12.84C13.28 12.4133 13.3547 12.04 13.504 11.72C13.6533 11.3893 13.8667 11.1227 14.144 10.92H14.128C14.4053 10.7387 14.6933 10.5893 14.992 10.472C15.2907 10.3547 15.5787 10.296 15.856 10.296H19.344C19.6213 10.296 19.9093 10.3547 20.208 10.472C20.5067 10.5893 20.7947 10.7387 21.072 10.92H21.056C21.3333 11.1227 21.5467 11.3893 21.696 11.72C21.8453 12.04 21.92 12.4133 21.92 12.84V13.784C21.92 14.2853 21.6 14.536 20.96 14.536C20.3307 14.536 20.016 14.2853 20.016 13.784V12.984C20.016 12.7173 19.936 12.472 19.776 12.248C19.616 12.024 19.3387 11.912 18.944 11.912H16.256C15.8613 11.912 15.584 12.024 15.424 12.248C15.264 12.472 15.184 12.7173 15.184 12.984V14.616C15.184 14.8933 15.264 15.144 15.424 15.368C15.584 15.5813 15.8613 15.688 16.256 15.688H19.344ZM31.2043 10.984C31.2043 10.472 31.5189 10.216 32.1483 10.216C32.7883 10.216 33.1083 10.472 33.1083 10.984V22.328C33.1083 22.84 32.7883 23.096 32.1483 23.096C31.5189 23.096 31.2043 22.84 31.2043 22.328V10.984ZM26.3403 22.328C26.3403 22.84 26.0203 23.096 25.3803 23.096C24.7509 23.096 24.4363 22.84 24.4363 22.328V10.984C24.4363 10.472 24.7509 10.216 25.3803 10.216C26.0203 10.216 26.3403 10.472 26.3403 10.984V22.328ZM30.0843 16.392C30.0843 16.7653 29.9563 17.08 29.7003 17.336C29.4443 17.592 29.1296 17.72 28.7563 17.72C28.3936 17.72 28.0843 17.592 27.8283 17.336C27.5723 17.08 27.4443 16.7653 27.4443 16.392C27.4443 16.0187 27.5723 15.704 27.8283 15.448C28.0843 15.192 28.3936 15.064 28.7563 15.064C29.1296 15.064 29.4443 15.192 29.7003 15.448C29.9563 15.704 30.0843 16.0187 30.0843 16.392ZM41.4999 10.296C41.7772 10.296 42.0652 10.3547 42.3639 10.472C42.6625 10.5893 42.9505 10.7387 43.2279 10.92H43.2119C43.4892 11.1227 43.7025 11.3893 43.8519 11.72C44.0012 12.04 44.0759 12.4133 44.0759 12.84V20.44C44.0759 21.304 43.7879 21.9493 43.2119 22.376C42.9345 22.5787 42.6465 22.7387 42.3479 22.856C42.0599 22.9627 41.7772 23.016 41.4999 23.016H38.0119C37.7345 23.016 37.4465 22.9627 37.1479 22.856C36.8599 22.7387 36.5772 22.5787 36.2999 22.376C36.0225 22.1627 35.8092 21.9013 35.6599 21.592C35.5105 21.272 35.4359 20.888 35.4359 20.44V12.84C35.4359 12.4133 35.5105 12.04 35.6599 11.72C35.8092 11.3893 36.0225 11.1227 36.2999 10.92H36.2839C36.5612 10.7387 36.8492 10.5893 37.1479 10.472C37.4465 10.3547 37.7345 10.296 38.0119 10.296H41.4999ZM41.0999 21.4C41.4945 21.4 41.7719 21.288 41.9319 21.064C42.0919 20.84 42.1719 20.5893 42.1719 20.312V12.984C42.1719 12.7173 42.0919 12.472 41.9319 12.248C41.7719 12.024 41.4945 11.912 41.0999 11.912H38.4119C38.0172 11.912 37.7399 12.024 37.5799 12.248C37.4199 12.472 37.3399 12.7173 37.3399 12.984V20.312C37.3399 20.5893 37.4199 20.84 37.5799 21.064C37.7399 21.288 38.0172 21.4 38.4119 21.4H41.0999ZM51.0268 17.736H49.7948C49.6134 17.736 49.4694 17.6667 49.3628 17.528C49.2668 17.3787 49.2188 17.1813 49.2188 16.936C49.2188 16.392 49.4428 16.12 49.8908 16.12H51.7628C52.1574 16.12 52.4348 16.008 52.5948 15.784C52.7548 15.56 52.8348 15.3147 52.8348 15.048V12.984C52.8348 12.7173 52.7548 12.472 52.5948 12.248C52.4348 12.024 52.1574 11.912 51.7628 11.912H48.3868V22.344C48.3868 22.856 48.0721 23.112 47.4428 23.112C46.8134 23.112 46.4988 22.856 46.4988 22.344V11.256C46.4988 10.872 46.5948 10.616 46.7868 10.488C46.9894 10.36 47.2294 10.296 47.5068 10.296H52.1628C52.4401 10.296 52.7281 10.3547 53.0268 10.472C53.3254 10.5893 53.6134 10.7387 53.8908 10.92H53.8748C54.1521 11.1227 54.3654 11.3893 54.5148 11.72C54.6641 12.04 54.7388 12.4133 54.7388 12.84V15.176C54.7388 16.04 54.4508 16.6853 53.8748 17.112C53.7574 17.1973 53.6294 17.2773 53.4908 17.352C53.3628 17.4267 53.2294 17.5013 53.0908 17.576L55.6508 21.8C55.6828 21.8533 55.7148 21.9227 55.7468 22.008C55.7788 22.0933 55.7948 22.1627 55.7948 22.216C55.7948 22.472 55.6134 22.7173 55.2508 22.952V22.936C55.0054 23.0853 54.7974 23.16 54.6267 23.16C54.3814 23.16 54.1841 23.0373 54.0347 22.792L54.0508 22.808L51.0268 17.736ZM61.552 22.36C61.552 22.872 61.232 23.128 60.592 23.128C59.9627 23.128 59.648 22.872 59.648 22.36V11.912H56.848C56.464 11.912 56.2613 11.64 56.24 11.096C56.24 10.5627 56.4427 10.296 56.848 10.296H64.352C64.7573 10.296 64.9493 10.5627 64.928 11.096C64.928 11.64 64.736 11.912 64.352 11.912H61.552V22.36ZM67.3661 23.016C66.9715 23.016 66.7048 22.9147 66.5661 22.712C66.4275 22.5093 66.3581 22.2853 66.3581 22.04V10.984C66.3581 10.472 66.6675 10.216 67.2861 10.216C67.9261 10.216 68.2461 10.472 68.2461 10.984V21.4H73.5901C73.9741 21.4 74.1661 21.6613 74.1661 22.184C74.1875 22.7387 73.9955 23.016 73.5901 23.016H67.3661ZM80.3114 22.36C80.3114 22.872 79.9967 23.128 79.3674 23.128C78.738 23.128 78.4234 22.872 78.4234 22.36V18.104L74.8394 11.288C74.7754 11.1493 74.7434 11.0053 74.7434 10.856C74.7434 10.5467 74.9247 10.3173 75.2874 10.168H75.2714C75.506 10.0827 75.6927 10.04 75.8314 10.04C76.1087 10.04 76.322 10.1787 76.4714 10.456L79.3834 15.928C79.5967 15.5227 79.826 15.0907 80.0714 14.632C80.3167 14.1627 80.562 13.688 80.8074 13.208C81.0634 12.728 81.314 12.2533 81.5594 11.784C81.8047 11.3147 82.0394 10.872 82.2634 10.456C82.3487 10.328 82.4394 10.2267 82.5354 10.152C82.642 10.0773 82.77 10.04 82.9194 10.04C83.0687 10.04 83.2447 10.0827 83.4474 10.168H83.4314C83.8047 10.328 83.9914 10.5627 83.9914 10.872C83.9914 10.936 83.986 11.0053 83.9754 11.08C83.9647 11.144 83.938 11.2133 83.8954 11.288C83.7994 11.48 83.6767 11.7147 83.5274 11.992C83.3887 12.2693 83.186 12.6587 82.9194 13.16C82.6634 13.6507 82.3274 14.296 81.9114 15.096C81.4954 15.8853 80.962 16.904 80.3114 18.152V22.36Z" fill="white"/>
</svg>
