<svg xmlns="http://www.w3.org/2000/svg" version="1.1" xmlns:xlink="http://www.w3.org/1999/xlink" xmlns:svgjs="http://svgjs.dev/svgjs" width="1500" height="1500" viewBox="0 0 1500 1500"><rect width="1500" height="1500" fill="#111111"></rect><g transform="matrix(0.6666666666666666,0,0,0.6666666666666666,250,250)"><svg viewBox="0 0 280 280" data-background-color="#111111" preserveAspectRatio="xMidYMid meet" height="1500" width="1500" xmlns="http://www.w3.org/2000/svg" xmlns:xlink="http://www.w3.org/1999/xlink"><g id="tight-bounds" transform="matrix(1,0,0,1,0,0)"><svg viewBox="0 0 280 280" height="280" width="280"><g><svg viewBox="0 0 280 280" height="280" width="280"><g><svg viewBox="0 0 280 280" height="280" width="280"><g id="textblocktransform"><svg viewBox="0 0 280 280" height="280" width="280" id="textblock"><g><svg viewBox="0 0 280 280" height="280" width="280"><g transform="matrix(1,0,0,1,74.00336708925556,74.00336708925556)"><svg viewBox="0 0 131.99326582148888 131.99326582148888" height="131.99326582148888" width="131.99326582148888"><g><circle r="66" cx="65.99663291074444" cy="65.99663291074444" fill="#ffffff" data-fill-palette-color="accent"></circle></g></svg></g><g><path d="M15.601 100.379l2.19-6.368c0.196-0.569 0.522-1.117 0.979-1.645 0.453-0.537 0.976-1.021 1.571-1.452v0l-0.01 0.028c0.587-0.434 1.275-0.688 2.064-0.763 0.789-0.075 1.622 0.039 2.5 0.341v0l4.511 1.552c1.782 0.613 2.907 1.664 3.377 3.154v0c0.219 0.718 0.342 1.418 0.37 2.099 0.019 0.685-0.07 1.311-0.266 1.879v0l-2.474 7.193c-0.196 0.569-0.511 1.117-0.948 1.645-0.44 0.52-0.968 0.995-1.582 1.427v0c-1.287 0.886-2.821 1.022-4.603 0.409v0l-2.17-0.746c-1.036-0.356-1.331-1.182-0.885-2.478v0c0.454-1.32 1.199-1.802 2.235-1.446v0l1.914 0.659c0.569 0.196 1.14 0.208 1.714 0.039 0.576-0.176 1.004-0.669 1.282-1.478v0l1.907-5.543c0.278-0.809 0.243-1.457-0.105-1.944-0.346-0.493-0.803-0.838-1.371-1.034v0l-3.99-1.372c-0.55-0.189-1.119-0.198-1.708-0.026-0.587 0.166-1.019 0.653-1.298 1.461v0l-2.19 6.368c-0.393 1.143-1.215 2.175-2.464 3.095v0c-1.331 0.87-2.865 1.007-4.602 0.409v0l-3.924-1.349c-0.878-0.302-1.599-0.723-2.162-1.263-0.563-0.54-0.955-1.166-1.176-1.878v0l-0.01 0.028c-0.177-0.697-0.28-1.393-0.31-2.088-0.033-0.704 0.048-1.34 0.243-1.909v0l2.475-7.193c0.196-0.569 0.522-1.117 0.979-1.645 0.453-0.537 0.964-1.025 1.532-1.465v0l-0.01 0.029c0.613-0.425 1.307-0.677 2.084-0.757 0.776-0.079 1.603 0.032 2.481 0.334v0l1.952 0.672c1.03 0.354 1.318 1.192 0.863 2.512v0c-0.446 1.295-1.183 1.766-2.213 1.411v0l-1.648-0.567c-0.55-0.189-1.113-0.196-1.689-0.019-0.574 0.17-1 0.659-1.279 1.467v0l-1.907 5.544c-0.278 0.809-0.244 1.46 0.102 1.953 0.348 0.487 0.797 0.825 1.346 1.015v0l3.355 1.154c0.575 0.198 1.143 0.21 1.705 0.035 0.564-0.181 0.985-0.675 1.263-1.484z" fill="#ffffff" data-fill-palette-color="primary"></path><path d="M60.154 57.133l-18.016-16.917c-0.813-0.764-0.751-1.645 0.187-2.643v0c0.951-1.013 1.834-1.138 2.646-0.374v0l18.016 16.917c0.813 0.764 0.744 1.652-0.207 2.665v0c-0.938 0.998-1.813 1.116-2.626 0.352zM34.88 47.946l18.016 16.916c0.813 0.764 0.742 1.655-0.214 2.673v0c-0.938 0.998-1.813 1.116-2.626 0.352v0l-18.016-16.917c-0.813-0.764-0.751-1.645 0.187-2.643v0c0.956-1.018 1.84-1.145 2.653-0.381zM49.048 50.059v0c0.594 0.558 0.906 1.231 0.936 2.02 0.02 0.789-0.249 1.48-0.807 2.074v0c-0.54 0.575-1.201 0.874-1.985 0.899-0.793 0.025-1.487-0.242-2.081-0.799v0c-0.589-0.553-0.896-1.227-0.922-2.02-0.025-0.784 0.233-1.463 0.773-2.038v0c0.558-0.594 1.231-0.906 2.019-0.936 0.789-0.02 1.478 0.247 2.067 0.8z" fill="#ffffff" data-fill-palette-color="primary"></path><path d="M83.445 11.541l7.005-2.938c0.555-0.233 1.184-0.355 1.889-0.368 0.696-0.017 1.4 0.039 2.113 0.168v0l-0.037 0.015c0.731 0.172 1.382 0.522 1.951 1.051 0.576 0.526 1.043 1.218 1.403 2.074v0l6.402 15.268c0.729 1.737 0.693 3.277-0.106 4.619v0c-0.384 0.639-0.824 1.197-1.319 1.673-0.498 0.47-1.025 0.821-1.58 1.054v0l-7.005 2.937c-0.561 0.235-1.18 0.364-1.859 0.389-0.687 0.02-1.393-0.057-2.118-0.232v0c-0.739-0.19-1.392-0.539-1.96-1.047-0.559-0.504-1.029-1.209-1.409-2.115v0l-6.402-15.267c-0.359-0.856-0.528-1.673-0.506-2.451 0.028-0.78 0.237-1.49 0.627-2.132v0l-0.037 0.016c0.408-0.599 0.862-1.14 1.362-1.625 0.497-0.491 1.026-0.854 1.586-1.089zM93.604 33.513l5.398-2.263c0.795-0.333 1.258-0.792 1.39-1.376 0.132-0.584 0.081-1.153-0.152-1.708v0l-6.173-14.722c-0.225-0.536-0.592-0.962-1.101-1.277-0.509-0.315-1.161-0.306-1.956 0.026v0l-5.397 2.264c-0.795 0.333-1.258 0.792-1.39 1.376-0.132 0.584-0.085 1.144 0.14 1.68v0l6.173 14.722c0.233 0.555 0.603 0.989 1.113 1.305 0.509 0.315 1.161 0.306 1.955-0.027z" fill="#ffffff" data-fill-palette-color="primary"></path><path d="M152.143 27.667l-6.257-11.232-2.685-0.079c-0.394-0.012-0.697-0.178-0.907-0.498-0.211-0.32-0.309-0.748-0.293-1.282v0c0.035-1.189 0.54-1.769 1.514-1.74v0l4.077 0.12c0.855 0.025 1.463-0.201 1.825-0.678 0.368-0.477 0.561-1.006 0.578-1.587v0l0.132-4.488c0.017-0.581-0.144-1.12-0.484-1.619-0.333-0.498-0.927-0.759-1.782-0.784v0l-7.352-0.216-0.667 22.709c-0.033 1.115-0.737 1.653-2.113 1.613v0c-1.369-0.04-2.037-0.618-2.004-1.734v0l0.709-24.141c0.025-0.835 0.258-1.386 0.7-1.654 0.436-0.268 0.954-0.393 1.555-0.375v0l10.148 0.298c0.601 0.018 1.222 0.166 1.861 0.445 0.647 0.273 1.265 0.615 1.855 1.027v0l-0.03 0c0.588 0.458 1.035 1.046 1.342 1.763 0.306 0.717 0.446 1.54 0.418 2.469v0l-0.149 5.089c-0.055 1.883-0.724 3.271-2.007 4.162v0c-0.266 0.179-0.545 0.345-0.837 0.497-0.292 0.159-0.594 0.313-0.906 0.464v0l5.31 9.36c0.063 0.122 0.129 0.274 0.197 0.457 0.061 0.189 0.09 0.344 0.086 0.464v0c-0.016 0.554-0.426 1.077-1.229 1.568v0l0.001-0.04c-0.544 0.312-1.003 0.462-1.376 0.45v0c-0.534-0.016-0.954-0.295-1.259-0.839v0z" fill="#ffffff" data-fill-palette-color="primary"></path><path d="M201.406 17.987l-9.706 20.586c-0.476 1.009-1.345 1.216-2.608 0.62v0c-1.239-0.584-1.62-1.381-1.144-2.39v0l9.706-20.585-5.521-2.603c-0.755-0.356-0.901-1.082-0.435-2.178v0c0.496-1.051 1.143-1.389 1.94-1.013v0l14.793 6.975c0.798 0.376 0.927 1.08 0.39 2.112v0c-0.507 1.076-1.138 1.435-1.894 1.079v0z" fill="#ffffff" data-fill-palette-color="primary"></path><path d="M230.67 71.586l-9.254-9.911c-0.584-0.625-0.819-1.2-0.707-1.726 0.117-0.521 0.371-0.963 0.762-1.328v0l17.601-16.435c0.815-0.761 1.684-0.649 2.605 0.337v0c0.953 1.021 1.022 1.912 0.206 2.673v0l-16.583 15.485 7.941 8.504c0.575 0.615 0.444 1.313-0.391 2.092v0c-0.847 0.855-1.574 0.958-2.18 0.309z" fill="#ffffff" data-fill-palette-color="primary"></path><path d="M258.741 102.687l-8.617 3.133c-1.049 0.381-1.807-0.072-2.275-1.359v0c-0.47-1.293-0.181-2.131 0.867-2.512v0l8.712-3.167 11.291-12.412c0.235-0.235 0.506-0.408 0.814-0.519v0c0.634-0.231 1.241-0.028 1.82 0.607v0l-0.014-0.038c0.345 0.422 0.569 0.774 0.672 1.057v0c0.205 0.565 0.082 1.104-0.371 1.617v0l-9.041 10.037c0.995 0.136 2.058 0.283 3.188 0.44 1.131 0.158 2.281 0.312 3.453 0.462 1.167 0.159 2.322 0.315 3.465 0.468 1.143 0.153 2.225 0.304 3.245 0.451v0c0.328 0.08 0.604 0.196 0.831 0.349 0.226 0.152 0.395 0.382 0.507 0.69v0c0.112 0.308 0.158 0.7 0.139 1.175v0l-0.014-0.037c-0.054 0.887-0.395 1.445-1.023 1.673v0c-0.132 0.048-0.275 0.086-0.428 0.113-0.151 0.034-0.318 0.034-0.501 0v0c-0.466-0.051-1.036-0.121-1.708-0.21-0.672-0.09-1.614-0.216-2.825-0.381-1.214-0.17-2.787-0.384-4.722-0.64-1.937-0.263-4.425-0.595-7.465-0.997z" fill="#ffffff" data-fill-palette-color="primary"></path><path d="M156.768 263.936l6.695-0.967c0.602-0.087 1.245-0.052 1.929 0.106 0.685 0.164 1.359 0.411 2.021 0.741v0l-0.03 0.004c0.662 0.33 1.206 0.828 1.633 1.496 0.428 0.674 0.709 1.474 0.843 2.399v0l0.686 4.751c0.271 1.878-0.151 3.37-1.267 4.476v0c-0.539 0.523-1.111 0.954-1.717 1.291-0.6 0.33-1.201 0.538-1.803 0.625v0l-7.568 1.093c-0.602 0.087-1.237 0.057-1.906-0.089-0.67-0.153-1.338-0.404-2.003-0.753v0c-1.383-0.745-2.211-2.057-2.482-3.935v0l-0.331-2.291c-0.157-1.084 0.446-1.725 1.808-1.922v0c1.389-0.201 2.161 0.241 2.318 1.326v0l0.291 2.013c0.087 0.602 0.341 1.122 0.762 1.561 0.414 0.433 1.05 0.587 1.91 0.463v0l5.832-0.842c0.853-0.123 1.42-0.451 1.701-0.985 0.273-0.539 0.366-1.109 0.279-1.711v0l-0.606-4.196c-0.084-0.582-0.334-1.096-0.749-1.542-0.422-0.445-1.06-0.606-1.913-0.483v0l-6.705 0.968c-1.203 0.174-2.503-0.087-3.9-0.783v0c-1.39-0.791-2.218-2.103-2.482-3.935v0l-0.596-4.126c-0.134-0.926-0.09-1.766 0.132-2.52 0.222-0.754 0.602-1.393 1.141-1.916v0l-0.04 0.005c0.544-0.484 1.122-0.898 1.734-1.243 0.611-0.351 1.217-0.571 1.819-0.657v0l7.568-1.093c0.602-0.087 1.245-0.048 1.931 0.116 0.684 0.158 1.356 0.391 2.015 0.701v0l-0.03 0.004c0.665 0.349 1.21 0.855 1.636 1.516 0.426 0.661 0.706 1.454 0.84 2.379v0l0.295 2.044c0.158 1.091-0.458 1.737-1.846 1.937v0c-1.369 0.198-2.132-0.249-2.29-1.34v0l-0.25-1.736c-0.083-0.575-0.332-1.083-0.747-1.522-0.42-0.432-1.057-0.587-1.91-0.463v0l-5.832 0.842c-0.86 0.124-1.426 0.452-1.7 0.985-0.28 0.54-0.378 1.098-0.295 1.673v0l0.511 3.541c0.087 0.602 0.34 1.115 0.759 1.54 0.413 0.426 1.049 0.578 1.909 0.454z" fill="#ffffff" data-fill-palette-color="secondary"></path><path d="M192.088 269.385l-8.233-23.461c-0.372-1.059 0.095-1.818 1.4-2.275v0c1.324-0.465 2.172-0.167 2.543 0.892v0l8.233 23.46c0.372 1.059-0.104 1.821-1.428 2.286v0c-1.305 0.458-2.143 0.157-2.515-0.902zM173.794 249.455l8.232 23.461c0.372 1.059-0.104 1.821-1.428 2.285v0c-1.299 0.456-2.134 0.154-2.506-0.905v0l-8.232-23.461c-0.372-1.059 0.092-1.817 1.39-2.272v0c1.324-0.465 2.172-0.167 2.544 0.892zM185.464 257.924v0c0.27 0.769 0.233 1.511-0.111 2.227-0.344 0.715-0.9 1.208-1.669 1.478v0c-0.75 0.263-1.483 0.223-2.199-0.121-0.715-0.344-1.208-0.9-1.478-1.669v0c-0.272-0.775-0.236-1.521 0.108-2.237 0.344-0.715 0.891-1.205 1.641-1.468v0c0.769-0.27 1.511-0.233 2.227 0.111 0.715 0.344 1.209 0.903 1.481 1.679z" fill="#ffffff" data-fill-palette-color="secondary"></path><path d="M193.603 239.018l6.604-3.854c0.525-0.306 1.136-0.512 1.833-0.617 0.693-0.111 1.404-0.146 2.131-0.106v0l-0.034 0.02c0.747 0.074 1.443 0.338 2.085 0.791 0.643 0.452 1.2 1.083 1.672 1.89v0l8.394 14.386c0.956 1.639 1.125 3.18 0.506 4.625v0c-0.303 0.687-0.669 1.299-1.099 1.836-0.433 0.531-0.912 0.95-1.437 1.256v0l-6.604 3.853c-0.525 0.306-1.125 0.517-1.8 0.633-0.684 0.113-1.4 0.132-2.148 0.058v0c-0.761-0.098-1.458-0.364-2.09-0.799-0.63-0.429-1.192-1.068-1.687-1.916v0l-8.395-14.386c-0.471-0.808-0.746-1.603-0.823-2.385-0.078-0.782 0.035-1.517 0.338-2.205v0l-0.026 0.015c0.323-0.653 0.703-1.254 1.141-1.803 0.434-0.555 0.914-0.986 1.439-1.292zM206.624 259.604l5.09-2.97c0.75-0.438 1.152-0.955 1.206-1.551 0.057-0.605-0.068-1.171-0.374-1.696v0l-8.096-13.875c-0.293-0.502-0.717-0.877-1.272-1.126-0.546-0.246-1.194-0.15-1.944 0.287v0l-5.09 2.97c-0.744 0.434-1.147 0.951-1.207 1.551-0.051 0.602 0.07 1.154 0.363 1.656v0l8.097 13.875c0.306 0.525 0.734 0.914 1.283 1.166 0.552 0.243 1.2 0.147 1.944-0.287z" fill="#ffffff" data-fill-palette-color="secondary"></path><path d="M236.911 240.296l-12.338-3.913-2.017 1.788c-0.3 0.266-0.639 0.352-1.016 0.259-0.373-0.089-0.737-0.333-1.092-0.733v0c-0.793-0.895-0.823-1.668-0.088-2.32v0l3.067-2.719c0.65-0.576 0.943-1.162 0.879-1.758-0.063-0.605-0.287-1.125-0.673-1.559v0l-3.006-3.389c-0.386-0.435-0.875-0.72-1.468-0.855-0.584-0.134-1.2 0.087-1.85 0.663v0l-5.533 4.907 15.174 17.11c0.74 0.835 0.593 1.711-0.442 2.629v0c-1.03 0.913-1.915 0.952-2.655 0.117v0l-16.131-18.19c-0.559-0.63-0.768-1.194-0.63-1.692 0.134-0.494 0.428-0.942 0.883-1.345v0l7.64-6.776c0.455-0.403 1.014-0.725 1.677-0.964 0.658-0.244 1.348-0.418 2.069-0.522v0l-0.03 0.027c0.747-0.073 1.481 0.049 2.2 0.366 0.719 0.318 1.389 0.826 2.009 1.526v0l3.398 3.832c1.254 1.415 1.72 2.891 1.396 4.428v0c-0.066 0.308-0.153 0.623-0.263 0.943-0.114 0.315-0.227 0.635-0.341 0.959v0l10.342 3.204c0.125 0.041 0.278 0.107 0.457 0.198 0.174 0.096 0.301 0.188 0.381 0.278v0c0.372 0.42 0.432 1.086 0.178 1.999v0l-0.026-0.03c-0.183 0.6-0.414 1.023-0.694 1.272v0c-0.405 0.359-0.907 0.447-1.507 0.264v0z" fill="#ffffff" data-fill-palette-color="secondary"></path><path d="M229.845 211.588l18.046 14.097c0.884 0.691 0.895 1.589 0.031 2.695v0c-0.847 1.085-1.713 1.281-2.598 0.591v0l-18.045-14.098-3.782 4.841c-0.518 0.663-1.263 0.645-2.235-0.054v0c-0.921-0.72-1.109-1.43-0.561-2.13v0l10.131-12.967c0.547-0.7 1.267-0.672 2.159 0.084v0c0.942 0.736 1.154 1.436 0.636 2.1v0z" fill="#ffffff" data-fill-palette-color="secondary"></path><path d="M263.774 202.859l-6.705 11.889c-0.423 0.751-0.903 1.152-1.437 1.202-0.532 0.045-1.033-0.065-1.505-0.331v0l-21.107-11.903c-0.978-0.551-1.133-1.418-0.467-2.599v0c0.689-1.222 1.523-1.557 2.5-1.006v0l19.885 11.214 5.755-10.204c0.414-0.733 1.121-0.818 2.122-0.253v0c1.076 0.553 1.396 1.217 0.959 1.991z" fill="#ffffff" data-fill-palette-color="secondary"></path><path d="M259.45 183.724l8.692 3.075c1.058 0.374 1.357 1.213 0.895 2.517v0c-0.459 1.297-1.218 1.759-2.276 1.385v0l-8.795-3.112-16.707 2.423c-0.33 0.032-0.65-0.007-0.959-0.116v0c-0.642-0.227-0.985-0.77-1.029-1.629v0l-0.013 0.038c0.002-0.545 0.054-0.963 0.156-1.252v0c0.203-0.573 0.642-0.914 1.318-1.022v0l13.439-2.017c-0.682-0.737-1.412-1.527-2.192-2.37-0.777-0.849-1.571-1.708-2.384-2.576-0.806-0.866-1.604-1.726-2.393-2.58-0.792-0.847-1.536-1.656-2.234-2.427v0c-0.202-0.27-0.342-0.536-0.42-0.797-0.078-0.261-0.062-0.546 0.047-0.855v0c0.109-0.309 0.323-0.644 0.643-1.006v0l-0.013 0.038c0.608-0.657 1.23-0.872 1.866-0.647v0c0.132 0.047 0.266 0.108 0.402 0.185 0.138 0.07 0.267 0.176 0.387 0.317v0c0.325 0.342 0.722 0.762 1.191 1.261 0.468 0.499 1.12 1.201 1.955 2.106 0.835 0.905 1.923 2.076 3.264 3.515 1.332 1.442 3.052 3.291 5.16 5.546z" fill="#ffffff" data-fill-palette-color="secondary"></path><path d="M2.569 143.665c0-5.956 4.828-10.784 10.784-10.784 5.956 0 10.784 4.828 10.784 10.784 0 5.956-4.828 10.784-10.784 10.784-5.956 0-10.784-4.828-10.784-10.784z" fill="#ffffff" data-fill-palette-color="primary"></path><path d="M255.117 143.665c0-5.956 4.828-10.784 10.784-10.784 5.956 0 10.784 4.828 10.784 10.784 0 5.956-4.828 10.784-10.784 10.784-5.956 0-10.784-4.828-10.784-10.784z" fill="#ffffff" data-fill-palette-color="primary"></path></g></svg></g></svg></g></svg></g></svg></g><defs></defs></svg><rect width="280" height="280" fill="none" stroke="none" visibility="hidden"></rect></g></svg></g></svg>